<svg xmlns="http://www.w3.org/2000/svg" viewBox="0 0 240 240" role="img" aria-label="Carl, your Care Companion">
  <defs>
    <linearGradient id="bg" x1="0" x2="1" y1="0" y2="1">
      <stop offset="0%" stop-color="#236bd2"/>
      <stop offset="100%" stop-color="#16a75b"/>
    </linearGradient>
    <linearGradient id="shirt" x1="0" x2="1" y1="0" y2="1">
      <stop offset="0%" stop-color="#2b73d7"/>
      <stop offset="100%" stop-color="#1a4d98"/>
    </linearGradient>
  </defs>
  <circle cx="120" cy="120" r="116" fill="url(#bg)"/>
  <circle cx="120" cy="120" r="108" fill="#f4fbff" opacity="0.14"/>
  <path d="M50 209c16-34 43-53 70-53s55 19 70 53" fill="url(#shirt)" stroke="#ffffff" stroke-width="6" stroke-linecap="round"/>
  <path d="M84 79c4-22 22-39 46-39 20 0 36 11 44 28 5 0 9 4 9 10 0 9-11 15-20 15H84c-7 0-13-5-13-12 0-8 6-14 13-14z" fill="#24364a"/>
  <circle cx="120" cy="102" r="44" fill="#f3c9a9" stroke="#ffffff" stroke-width="6"/>
  <path d="M78 95c6-20 21-34 43-34 22 0 37 13 43 33-8-2-15-7-20-13-8 8-21 13-42 14-7 0-16 0-24 0z" fill="#24364a"/>
  <ellipse cx="103" cy="104" rx="4.2" ry="5.3" fill="#24364a"/>
  <ellipse cx="137" cy="104" rx="4.2" ry="5.3" fill="#24364a"/>
  <path d="M107 124c7 6 19 6 26 0" fill="none" stroke="#24364a" stroke-width="4.5" stroke-linecap="round"/>
  <path d="M107 115h26" fill="none" stroke="#e3a385" stroke-width="3.2" stroke-linecap="round" opacity="0.8"/>
  <circle cx="88" cy="118" r="5" fill="#eaa98e" opacity="0.7"/>
  <circle cx="152" cy="118" r="5" fill="#eaa98e" opacity="0.7"/>
  <path d="M95 59c10-10 22-15 39-13 11 1 22 7 28 16" fill="none" stroke="#3d4c5c" stroke-width="5" stroke-linecap="round" opacity="0.55"/>
  <circle cx="181" cy="57" r="18" fill="#ffffff"/>
  <path d="M173 57h16" stroke="#16a75b" stroke-width="5" stroke-linecap="round"/>
  <path d="M181 49v16" stroke="#16a75b" stroke-width="5" stroke-linecap="round"/>
  <path d="M68 182c15 18 33 27 52 27s37-9 52-27" fill="none" stroke="#ffffff" stroke-width="6" stroke-linecap="round" opacity="0.65"/>
</svg>